<svg xmlns="http://www.w3.org/2000/svg" xmlns:xlink="http://www.w3.org/1999/xlink" width="1920" height="1080" viewBox="0 0 1920 1080">
  <defs>
    <style>
      .cls-1 {
        clip-path: url(#clip-wave);
      }

      .cls-2 {
        fill: url(#linear-gradient);
      }
    </style>
    <linearGradient id="linear-gradient" x1="0.004" y1="0.66" x2="0.341" y2="0.67" gradientUnits="objectBoundingBox">
      <stop offset="0" stop-color="#5c258d"/>
      <stop offset="1" stop-color="#00447e"/>
    </linearGradient>
    <clipPath id="clip-wave">
      <rect width="1920" height="1080"/>
    </clipPath>
  </defs>
  <g id="wave" class="cls-1">
    <path id="wave-2" data-name="wave" class="cls-2" d="M0,0,43.635,54.872C87.27,109.743,174.14,219.487,262.21,274.359c87.07,54.872,174.14,54.872,262.21,27.436,87.07-27.436,174.14-82.308,262.21-109.743,86.87-27.436,174.14-27.436,262.21-9.088,86.669,17.662,174.14,55.386,262.21,91.4,86.469,36.01,174.14,73.734,260.208,100.655,88.271,27.95,176.141,45.1,262.21,0,88.071-45.784,176.141-155.527,262.21-192.051,87.871-37.21,176.141.514,262.21,0,87.67.514,174.14-37.21,262.21-54.872,87.47-18.348,174.14-18.348,218.175-18.348h44.035V823.078H12.934Z" transform="translate(1080.116 1311.668) rotate(-65)"/>
  </g>
</svg>
