<?xml version="1.0" standalone="no"?>
<!DOCTYPE svg PUBLIC "-//W3C//DTD SVG 20010904//EN"
 "http://www.w3.org/TR/2001/REC-SVG-20010904/DTD/svg10.dtd">
<svg version="1.0" xmlns="http://www.w3.org/2000/svg"
 width="896.000000pt" height="896.000000pt" viewBox="0 0 896.000000 896.000000"
 preserveAspectRatio="xMidYMid meet">
<metadata>
Created by potrace 1.11, written by Peter Selinger 2001-2013
</metadata>
<g transform="translate(0.000000,896.000000) scale(0.100000,-0.100000)"
fill="#000000" stroke="none">
<path d="M720 4480 l0 -4480 1599 0 c1271 0 1600 3 1604 13 2 6 0 24 -4 39 -4
15 -4 30 1 33 5 3 5 18 1 33 -4 15 -5 38 -1 52 4 14 3 35 -1 47 -5 12 -4 25 1
28 5 3 5 18 1 33 -5 15 -5 36 -1 47 4 11 4 32 -1 47 -4 15 -4 30 1 33 5 3 5
18 1 33 -4 15 -5 38 -1 52 4 14 3 35 -1 47 -5 12 -4 25 1 28 5 3 5 18 1 33 -5
15 -5 36 -1 47 4 11 4 32 -1 47 -4 15 -4 30 1 33 5 3 5 18 1 33 -4 15 -5 38
-1 52 4 14 3 35 -1 47 -5 12 -4 25 1 28 5 3 5 18 1 33 -5 15 -5 36 -1 47 4 11
4 32 -1 47 -4 15 -4 30 1 33 5 3 5 18 1 33 -4 15 -5 38 -1 52 4 14 3 35 -1 47
-5 12 -4 25 1 28 5 3 5 18 1 33 -4 15 -5 38 -1 52 4 14 3 35 -1 47 -5 13 -4
25 2 28 5 4 6 11 3 17 -4 6 -6 30 -5 54 3 125 3 142 -3 153 -4 6 -2 11 4 11 6
0 8 5 5 11 -4 6 -7 33 -6 60 1 27 1 71 2 98 1 27 -2 54 -5 60 -4 5 -2 12 4 16
6 4 7 11 4 17 -4 6 -6 30 -5 54 3 125 3 142 -3 153 -4 6 -2 11 4 11 6 0 8 5 5
11 -4 6 -7 33 -6 60 1 27 1 71 2 98 1 27 -2 54 -5 60 -4 5 -2 12 4 16 6 4 7
11 4 17 -4 6 -6 30 -5 54 3 125 3 142 -3 153 -4 6 -2 11 4 11 6 0 8 5 5 11 -4
6 -7 33 -6 60 1 27 1 71 2 98 1 27 -2 54 -5 60 -4 5 -2 12 4 16 6 4 7 11 4 17
-4 6 -6 30 -5 54 3 125 3 142 -3 153 -4 6 -2 11 4 11 6 0 8 5 5 11 -4 6 -7 33
-6 60 1 27 1 71 2 98 1 27 -2 54 -5 60 -4 5 -2 12 4 16 6 4 7 11 4 17 -4 6 -6
30 -5 54 3 125 3 142 -3 153 -4 6 -2 11 4 11 6 0 8 5 5 11 -4 6 -7 33 -6 60 1
27 1 71 2 98 1 27 -2 54 -5 60 -4 5 -2 12 3 16 6 3 7 16 3 28 -4 12 -6 37 -5
55 6 72 5 130 -1 141 -4 6 -2 11 4 11 6 0 8 5 5 11 -4 6 -7 33 -6 60 1 27 1
71 2 98 1 27 -2 54 -5 60 -4 5 -2 12 4 16 6 4 7 11 4 17 -4 6 -6 30 -5 54 3
125 3 142 -3 153 -4 6 -2 11 4 11 6 0 8 5 5 11 -4 6 -7 33 -6 60 1 27 1 71 2
98 1 27 -2 54 -5 60 -4 5 -2 12 4 16 6 4 7 11 4 17 -4 6 -6 30 -5 54 3 125 3
142 -3 153 -4 6 -2 11 4 11 6 0 8 5 4 11 -8 13 -9 107 -1 115 3 3 1 18 -3 34
-4 16 -6 31 -3 34 8 8 7 102 -1 115 -4 6 -2 11 4 11 6 0 8 5 5 11 -4 6 -7 33
-6 60 1 27 1 71 2 98 1 27 -2 54 -5 60 -4 5 -2 12 4 16 6 4 7 11 4 17 -4 6 -6
30 -5 54 3 125 3 142 -3 153 -4 6 -2 11 4 11 6 0 8 5 5 11 -7 10 -7 29 -4 161
1 25 -2 51 -5 57 -4 5 -2 12 4 16 6 4 7 11 4 17 -4 6 -6 30 -5 54 3 125 3 142
-3 153 -4 6 -2 11 4 11 6 0 8 5 5 11 -4 6 -7 34 -6 62 1 29 1 63 0 77 0 14 0
31 0 38 4 65 2 112 -3 121 -4 6 -2 11 4 11 6 0 8 5 5 11 -4 6 -7 32 -6 57 3
132 3 151 -3 161 -4 5 -2 12 4 16 6 4 7 11 4 17 -4 6 -6 30 -5 54 3 125 3 142
-3 153 -4 6 -2 11 4 11 6 0 8 5 5 11 -4 6 -7 33 -6 60 1 27 1 71 2 98 1 27 -2
54 -5 60 -4 5 -2 12 4 16 6 4 7 11 4 17 -4 6 -6 30 -5 54 3 125 3 142 -3 153
-4 6 -2 11 4 11 6 0 8 5 4 11 -8 13 -9 107 -1 115 3 3 1 18 -3 34 -4 16 -6 31
-3 34 8 8 7 102 -1 115 -4 6 -2 11 4 11 6 0 8 5 5 11 -4 6 -7 33 -6 60 1 27 1
71 2 98 1 27 -2 54 -5 60 -4 5 -2 12 4 16 6 4 7 11 4 17 -4 6 -6 30 -5 54 3
125 3 142 -3 153 -4 6 -2 11 4 11 6 0 8 5 5 11 -7 10 -7 29 -4 161 1 25 -2 51
-5 57 -4 5 -2 12 4 16 6 4 7 11 4 17 -4 6 -6 30 -5 54 3 125 3 142 -3 153 -4
6 -2 11 4 11 6 0 8 5 5 11 -7 10 -10 93 -5 114 1 6 2 16 1 23 -1 9 -328 12
-1601 12 l-1600 0 0 -4480z"/>
<path d="M4921 5440 c-8 -4 -20 -6 -26 -4 -7 3 -15 -2 -18 -10 -4 -9 -2 -16 3
-16 5 0 6 -10 2 -22 -4 -13 -6 -34 -5 -48 1 -14 4 -40 6 -58 2 -18 0 -35 -5
-38 -4 -3 -4 -14 2 -24 7 -13 7 -21 0 -25 -7 -5 -8 -11 -1 -19 6 -7 6 -17 1
-26 -5 -8 -5 -21 0 -30 5 -9 5 -22 0 -30 -5 -9 -5 -19 1 -26 7 -8 6 -14 -1
-19 -7 -4 -7 -12 0 -25 6 -11 6 -21 1 -25 -6 -3 -6 -17 -1 -35 5 -18 5 -32 -1
-35 -5 -4 -5 -14 1 -25 7 -13 7 -21 0 -25 -7 -5 -8 -11 -1 -19 6 -7 6 -17 1
-26 -5 -8 -5 -21 0 -30 5 -9 5 -22 0 -30 -5 -9 -5 -19 1 -26 7 -8 6 -14 -1
-19 -7 -4 -7 -12 0 -25 6 -11 6 -21 1 -25 -6 -3 -6 -17 -1 -35 5 -18 5 -32 -1
-35 -5 -4 -5 -14 1 -25 7 -13 7 -21 0 -25 -7 -5 -8 -11 -1 -19 6 -7 6 -17 1
-26 -5 -8 -5 -21 0 -30 5 -9 5 -22 0 -30 -5 -9 -5 -19 1 -26 7 -8 6 -14 -1
-19 -7 -4 -7 -12 0 -25 6 -11 6 -21 1 -25 -6 -3 -6 -17 -1 -35 5 -18 5 -32 -1
-35 -5 -4 -5 -14 1 -25 7 -13 7 -21 0 -25 -7 -5 -8 -11 -1 -19 6 -7 6 -17 1
-26 -5 -8 -5 -21 0 -30 5 -9 5 -22 0 -30 -5 -9 -5 -19 1 -26 7 -8 6 -14 -1
-19 -7 -4 -7 -12 0 -25 6 -11 6 -21 1 -25 -6 -3 -6 -17 -1 -35 5 -18 5 -32 -1
-35 -5 -4 -5 -14 1 -25 7 -13 7 -21 0 -25 -8 -5 -8 -11 -1 -19 6 -7 8 -15 5
-19 -9 -9 -11 -78 -2 -83 4 -3 3 -15 -2 -28 -5 -13 -6 -27 -3 -30 8 -8 7 -85
-1 -93 -3 -3 -1 -12 5 -19 7 -8 7 -14 -1 -19 -7 -4 -7 -12 0 -25 6 -11 6 -21
1 -25 -6 -3 -6 -17 -1 -35 5 -18 5 -32 -1 -35 -5 -4 -5 -14 1 -25 7 -13 7 -21
0 -25 -8 -5 -8 -11 -1 -19 6 -7 8 -15 5 -19 -9 -9 -11 -78 -2 -83 4 -3 3 -16
-2 -29 -5 -13 -6 -26 -1 -29 4 -3 5 -28 1 -56 -4 -28 -3 -53 1 -56 5 -3 4 -16
-1 -29 -5 -13 -6 -27 -1 -29 4 -3 5 -26 1 -51 -4 -25 -3 -48 1 -51 5 -2 4 -16
-1 -29 -5 -13 -5 -27 -1 -29 5 -3 5 -24 1 -46 -4 -22 -4 -43 1 -46 4 -2 4 -15
-1 -28 -5 -13 -6 -27 -3 -30 8 -8 7 -85 -1 -93 -3 -3 -1 -12 5 -19 7 -8 7 -14
-1 -19 -7 -4 -7 -12 0 -25 6 -11 6 -21 1 -25 -6 -3 -6 -17 -1 -35 5 -18 5 -32
-1 -35 -5 -4 -5 -14 1 -25 7 -13 7 -21 0 -25 -8 -5 -8 -11 -1 -19 6 -7 8 -15
5 -19 -9 -9 -11 -78 -2 -83 4 -3 3 -16 -2 -29 -5 -13 -6 -26 -1 -29 4 -3 5
-28 1 -56 -4 -28 -3 -53 1 -56 5 -3 4 -16 -1 -29 -5 -13 -6 -27 -1 -29 4 -3 5
-26 1 -51 -4 -25 -3 -48 1 -51 5 -2 4 -16 -1 -29 -5 -13 -5 -27 -1 -29 5 -3 5
-24 1 -46 -4 -22 -4 -43 1 -46 4 -2 4 -15 -1 -28 -5 -13 -6 -27 -3 -30 8 -8 7
-85 -1 -93 -3 -3 -1 -12 5 -19 7 -8 7 -14 -1 -19 -7 -4 -7 -12 0 -25 6 -11 6
-21 1 -25 -6 -3 -6 -17 -1 -35 5 -18 5 -32 -1 -35 -5 -4 -5 -14 1 -25 7 -13 7
-21 0 -25 -8 -5 -8 -11 -1 -19 6 -7 8 -15 5 -19 -9 -9 -11 -78 -2 -83 4 -3 3
-16 -2 -29 -5 -13 -6 -26 -1 -29 4 -3 5 -28 1 -56 -4 -28 -3 -53 1 -56 5 -3 4
-16 -1 -29 -5 -13 -6 -27 -1 -29 4 -3 5 -26 1 -51 -4 -25 -3 -48 1 -51 5 -2 4
-16 -1 -29 -5 -13 -5 -27 -1 -29 5 -3 5 -24 1 -46 -4 -22 -4 -43 1 -46 4 -2 4
-15 -1 -28 -5 -13 -6 -27 -3 -30 8 -8 7 -85 -1 -93 -3 -3 -1 -12 5 -19 7 -8 7
-14 -1 -19 -7 -4 -7 -12 0 -25 6 -11 6 -21 1 -25 -6 -3 -6 -17 -1 -35 5 -18 5
-32 -1 -35 -5 -4 -5 -14 1 -25 7 -13 7 -21 0 -25 -8 -5 -8 -11 -1 -19 6 -7 8
-15 5 -19 -9 -9 -11 -78 -2 -83 4 -3 3 -16 -2 -29 -5 -13 -6 -26 -1 -29 4 -3
5 -28 1 -56 -4 -28 -3 -53 1 -56 5 -3 4 -16 -1 -29 -5 -13 -6 -27 -1 -29 4 -3
5 -26 1 -51 -4 -25 -3 -48 1 -51 5 -2 4 -16 -1 -29 -5 -14 -5 -27 -1 -30 5 -3
7 -14 4 -25 -5 -20 0 -20 1676 -20 l1682 0 -4 1177 c-2 648 -7 1194 -10 1213
-3 19 -8 62 -12 95 -3 33 -8 71 -11 85 -2 14 -7 41 -9 60 -3 19 -8 46 -11 60
-3 14 -8 36 -10 50 -2 14 -7 36 -10 50 -3 14 -7 33 -9 42 -9 43 -67 253 -73
263 -3 5 -7 15 -8 22 -4 27 -36 120 -50 145 -8 14 -14 33 -14 42 0 9 -5 16
-12 16 -6 0 -9 3 -5 6 3 3 -10 41 -28 84 -164 382 -398 729 -696 1029 -132
134 -187 183 -314 282 -146 114 -297 216 -435 291 -120 66 -185 100 -190 101
-3 0 -32 12 -65 27 -64 30 -93 41 -99 37 -1 -1 -10 4 -18 11 -13 10 -149 64
-198 78 -8 2 -68 20 -133 39 -65 19 -128 37 -140 39 -12 2 -40 9 -62 15 -22 5
-56 13 -75 16 -19 3 -69 11 -111 19 -112 21 -291 39 -409 40 -41 1 -77 4 -80
8 -3 4 -12 3 -19 -2z"/>
</g>
</svg>
